<?xml version="1.0" encoding="iso-8859-1"?>
<!-- Generator: Adobe Illustrator 19.0.0, SVG Export Plug-In . SVG Version: 6.00 Build 0)  -->
<svg version="1.1" id="Capa_1" xmlns="http://www.w3.org/2000/svg" xmlns:xlink="http://www.w3.org/1999/xlink" x="0px" y="0px"
	 viewBox="0 0 512 512" style="enable-background:new 0 0 512 512;" xml:space="preserve">
<g>
	<g>
		<path d="M458.591,287.831c-0.003-0.469-0.028-0.935-0.075-1.399c-0.01-0.095-0.026-0.19-0.037-0.286
			c-0.045-0.376-0.106-0.75-0.18-1.122c-0.025-0.124-0.049-0.248-0.077-0.371c-0.102-0.45-0.219-0.896-0.362-1.333
			c-0.007-0.022-0.016-0.041-0.024-0.063c-0.14-0.418-0.302-0.829-0.479-1.234c-0.049-0.114-0.101-0.225-0.155-0.339
			c-0.163-0.351-0.34-0.694-0.531-1.032c-0.041-0.073-0.078-0.148-0.121-0.22c-0.235-0.399-0.49-0.788-0.765-1.167
			c-0.06-0.083-0.125-0.161-0.186-0.243c-0.225-0.298-0.463-0.588-0.712-0.869c-0.085-0.096-0.169-0.192-0.256-0.286
			c-0.32-0.344-0.651-0.677-1.007-0.993L333.378,170.26v-44.797c0-0.031-0.005-0.062-0.005-0.094
			c-0.003-0.469-0.028-0.935-0.075-1.399c-0.01-0.096-0.026-0.19-0.037-0.286c-0.045-0.376-0.106-0.75-0.18-1.121
			c-0.025-0.124-0.049-0.248-0.077-0.371c-0.102-0.45-0.219-0.896-0.362-1.333c-0.007-0.022-0.016-0.041-0.024-0.063
			c-0.14-0.418-0.302-0.829-0.479-1.234c-0.049-0.114-0.101-0.226-0.155-0.339c-0.163-0.351-0.34-0.694-0.531-1.032
			c-0.041-0.073-0.078-0.148-0.121-0.22c-0.235-0.399-0.49-0.788-0.765-1.167c-0.06-0.083-0.125-0.161-0.186-0.243
			c-0.225-0.298-0.463-0.588-0.712-0.869c-0.085-0.096-0.169-0.192-0.256-0.286c-0.32-0.344-0.651-0.677-1.007-0.994L203.557,3.717
			c-0.311-0.276-0.634-0.533-0.963-0.779c-0.098-0.074-0.2-0.142-0.3-0.213c-0.24-0.17-0.484-0.335-0.733-0.489
			c-0.113-0.071-0.227-0.14-0.343-0.207c-0.259-0.152-0.523-0.294-0.79-0.429c-0.099-0.05-0.197-0.103-0.297-0.152
			c-0.371-0.178-0.748-0.344-1.131-0.488c-0.002-0.001-0.004-0.001-0.006-0.002c-0.377-0.143-0.76-0.266-1.147-0.377
			c-0.114-0.032-0.228-0.061-0.344-0.091c-0.286-0.075-0.572-0.142-0.862-0.199c-0.127-0.025-0.253-0.05-0.381-0.072
			c-0.315-0.054-0.632-0.098-0.951-0.131c-0.089-0.01-0.176-0.023-0.265-0.031c-0.411-0.035-0.823-0.055-1.237-0.056
			c-0.017,0-0.033-0.002-0.049-0.002H68.174c-8.157,0-14.769,6.613-14.769,14.769v320c0,8.157,6.613,14.769,14.769,14.769h110.448
			v147.692c0,8.157,6.613,14.769,14.769,14.769h250.435c8.157,0,14.769-6.613,14.769-14.769V287.924
			C458.595,287.893,458.591,287.862,458.591,287.831z M333.746,210.063l51.168,45.366l19.992,17.726h-71.159V210.063z
			 M208.53,47.601l51.168,45.366l19.992,17.726H208.53V47.601z M178.622,177.23v142.769H82.943V29.537h96.047v95.925
			c0,8.157,6.613,14.769,14.769,14.769h110.08v22.229H193.391C185.235,162.461,178.622,169.073,178.622,177.23z M429.057,482.461
			H208.16V191.999h96.047v95.925c0,8.157,6.613,14.769,14.769,14.769h110.08V482.461z"/>
	</g>
</g>
<g>
</g>
<g>
</g>
<g>
</g>
<g>
</g>
<g>
</g>
<g>
</g>
<g>
</g>
<g>
</g>
<g>
</g>
<g>
</g>
<g>
</g>
<g>
</g>
<g>
</g>
<g>
</g>
<g>
</g>
</svg>
